<?xml version="1.0" encoding="UTF-8"?>
<svg xmlns="http://www.w3.org/2000/svg" width="720" height="720" version="1.1" viewBox="0 0 720 720">
  <!-- Generator: Adobe Illustrator 29.7.1, SVG Export Plug-In . SVG Version: 2.1.1 Build 8)  -->
  <defs>
    <style>
      .st0 {
        fill: #fff;
      }

      .st1 {
        fill: none;
        stroke-width: 18px;
      }

      .st1, .st2 {
        stroke: #000;
        stroke-miterlimit: 10;
      }

      .st3 {
        display: none;
      }
    </style>
  </defs>
  <g id="Layer_1" class="st3">
    <g id="yPsSJT">
      <g>
        <path class="st0" d="M872.4-151.8V872.2H-151.6V-151.8H872.4ZM339.4,507.8v-135.5l143.5,142c3.4,4.9,2.2,12.1,10.2,13.8,9.2,2,13.3-5.6,14.2-13.4,38.9-39.1,78.4-77.7,117.1-116.9,4.3-4.4,23.6-26.8,27.5-27.5s9.6,1.7,13.1-4.9-.6-11.7-3.6-18.5v-136.1c.2-3.5,3.6-4.7,5-8,4.1-10.1-4.5-17.3-14.4-15.4L508.4,43.8c-1.2-8-.8-17.1-11.6-17.2s-8.8,6.5-10.8,6.8l-142.5-.6c-3-5.6-9.5-8.4-15.4-5.4s-4.1,5.7-6.1,5.9l-216.5-.6c-6.9-13.6-26.8-4.9-20.4,9.4s5.2,5,5.4,8.5l-.6,455.5c-4.4,3.4-5.8,8.6-3.9,14s4.7,4.4,4.5,7.5l-.6,155.5c-12.8,12.1,3.3,29.8,15.8,15.8l216.3-.8c3.2-.3,4.2,3.2,6.5,4.5,10.6,6,20.5-4.9,15.1-15.1s-4.3-3.6-4.3-6.7v-151.1c.6-4.3,5.2-5.3,5.1-12,0-6-4.5-7.9-5.1-10Z"/>
        <path d="M339.4,507.8c.6,2.1,5,3.9,5.1,10,0,6.7-4.6,7.6-5.1,12v151.1c0,3.1,2.9,4.1,4.3,6.7,5.4,10.2-4.5,21.2-15.1,15.1-2.3-1.3-3.3-4.8-6.5-4.5l-216.3.8c-12.5,14-28.6-3.7-15.8-15.8l.6-155.5c.2-3.1-3.6-5-4.5-7.5-1.8-5.4-.5-10.5,3.9-14l.6-455.5c-.3-3.6-3.9-5.2-5.4-8.5-6.5-14.3,13.5-23,20.4-9.4l216.5.6c2-.2,3.3-4.5,6.1-5.9,5.9-3,12.4-.2,15.4,5.4l142.5.6c2-.2,4.2-6.9,10.8-6.8,10.8.2,10.4,9.2,11.6,17.2l143.6,143.4c9.9-1.8,18.5,5.4,14.4,15.4s-4.8,4.6-4.9,8v136.1c3.1,6.8,7.8,10.5,3.6,18.5s-7.8,4-13.1,4.9-23.2,23.2-27.5,27.5c-38.7,39.2-78.2,77.8-117.1,116.9-.9,7.8-5.1,15.4-14.2,13.4-8-1.8-6.7-8.9-10.2-13.8l-143.5-142v135.5ZM329.4,263.2v-52.5c0-2-6.8-5.8-7-12-.2-7.5,6.3-9.7,6.6-11.9l-.5-136.1c.3-2-3.6-6.3-5.1-7-2.2-1-2.9.6-3.5.6H110.4l219,219ZM481.4,43.2h-138.5c-.4,0-3.5,4-3.5,4.5v138.5L481.4,43.2ZM347.4,193.2h139.5c.6,0,3.1-6.1,10-6.1s9.4,6.1,10,6.1h136.5L500,50.2h-10.1s-24.4,24.6-24.4,24.6l-118,118.5ZM306.8,256.9C237.8,188.9,169.9,119.8,101.4,51.3l-1,451,3-1.5c73.4-73.9,147.5-147.3,219.8-222.2.4-1.8.5-3.8,0-5.6s-13.5-13.3-16.4-16.1ZM342.7,354.9c1.5,1.2,3.3,1.3,5.2,1.3,43.2-1.8,88.1,2.2,131.1,0s11.7-.6,12.5-8.5l-.6-139.5c-3.6-5-6.2-4.9-12-5.1-39.1-.9-81-.3-120,1-11.9.4-19.5-4.6-20.5,11.5s-1,47.2.8,51.3,3,3.1,4.1,4.9c5.8,9.9-3.1,11.9-3.9,17.8,1.9,18.3-2.4,41.4,0,59.1s2.2,5.2,3.4,6.1ZM651.4,348.2v-140.5c0-.4-5.1-4.5-5.5-4.5h-136l-1.1,2c.6,2.5,7.9,7.6,10.1,9.9s2,3.1,3.4,4.6c42.1,43.6,86.3,85.5,129,128.5ZM501.4,213.2v136.5c0,.6,6.3,5.1,6.8,10.2s-4.3,10.7-9.4,11.2-6.4-1.8-8.4-.5l-67,69,68.5,68.1,10.1-1.5,143.2-144.7-2.2-7.5-141.6-140.9ZM107.4,512.2h216.5c.5,0,6.4-5.8,5.6-7.4l-.8-134.3c-4.4-4.5-7.4-9.2-4.1-15.6s4.9-4.7,4.9-5.1v-61.5l-222,224ZM480.4,366.2h-131l66.4,65.9,64.6-65.9ZM321.4,522.3l-218.6,1.9-1.5,3.5v153.1c.7,3.2,3.1,7.1,6.5,7.5,14.7,1.8,33-1.5,48.1,0l3-1,161-162,1.5-3ZM172.4,688.2h151.5c.4,0,5.5-5.1,5.5-5.5v-152.5l-157,158Z"/>
        <path class="st0" d="M306.8,256.9c2.8,2.8,15.8,14.1,16.4,16.1s.4,3.8,0,5.6c-72.3,74.9-146.4,148.3-219.8,222.2l-3,1.5,1-451c68.4,68.5,136.4,137.6,205.4,205.6Z"/>
        <path class="st0" d="M501.4,213.2l141.6,140.9,2.2,7.5-143.2,144.7-10.1,1.5-68.5-68.1,67-69c2-1.3,5.5.8,8.4.5,5.1-.6,9.9-6,9.4-11.2s-6.8-9.6-6.8-10.2v-136.5Z"/>
        <path class="st0" d="M107.4,512.2l222-224v61.5c0,.4-4.1,3.7-4.9,5.1-3.3,6.4-.3,11.1,4.1,15.6l.8,134.3c.8,1.6-5.1,7.4-5.6,7.4H107.4Z"/>
        <path class="st0" d="M329.4,263.2L110.4,44.2h209.5c.6,0,1.3-1.5,3.5-.6s5.4,5,5.1,7l.5,136.1c-.3,2.2-6.9,4.4-6.6,11.9.2,6.2,7,10,7,12v52.5Z"/>
        <path class="st0" d="M342.7,354.9c-1.2-.9-3.1-4.4-3.4-6.1-2.4-17.8,1.9-40.8,0-59.1.8-5.9,9.7-7.9,3.9-17.8s-3.3-3-4.1-4.9c-1.7-4-1.2-44.1-.8-51.3,1-16.1,8.6-11.1,20.5-11.5,39.1-1.3,81-1.9,120-1,5.7.1,8.4,0,12,5.1l.6,139.5c-.8,7.9-6.2,8.1-12.5,8.5-43,2.2-87.9-1.8-131.1,0-1.8,0-3.6-.2-5.2-1.3Z"/>
        <path class="st0" d="M321.4,522.3l-1.5,3-161,162-3,1c-15.1-1.5-33.4,1.8-48.1,0s-5.8-4.3-6.5-7.5v-153.1s1.5-3.5,1.5-3.5l218.6-1.9Z"/>
        <path class="st0" d="M347.4,193.2l118-118.5,24.4-24.6h10.1s143.5,143.1,143.5,143.1h-136.5c-.6,0-3.1-6.1-10-6.1s-9.4,6.1-10,6.1h-139.5Z"/>
        <path class="st0" d="M172.4,688.2l157-158v152.5c0,.4-5.1,5.5-5.5,5.5h-151.5Z"/>
        <path class="st0" d="M651.4,348.2c-42.7-43-86.9-84.8-129-128.5-1.4-1.4-2.2-3.2-3.4-4.6-2.2-2.3-9.5-7.4-10.1-9.9l1.1-2h136c.4,0,5.5,4.1,5.5,4.5v140.5Z"/>
        <path class="st0" d="M481.4,43.2l-142,143V47.8c0-.5,3.1-4.5,3.5-4.5h138.5Z"/>
        <polygon class="st0" points="480.4 366.2 415.8 432.2 349.4 366.2 480.4 366.2"/>
      </g>
    </g>
  </g>
  <g id="Layer_2">
    <g>
      <path d="M94.7,44.9c-4.9,0-9-4-9-9s4-9,9-9,9,4,9,9-4,9-9,9Z"/>
      <path d="M94.7,27.5c4.7,0,8.5,3.8,8.5,8.5s-3.8,8.5-8.5,8.5-8.5-3.8-8.5-8.5,3.8-8.5,8.5-8.5M94.7,26.5c-5.2,0-9.5,4.2-9.5,9.5s4.2,9.5,9.5,9.5,9.5-4.2,9.5-9.5-4.2-9.5-9.5-9.5h0Z"/>
    </g>
    <g>
      <path d="M333.9,44.9c-4.9,0-9-4-9-9s4-9,9-9,9,4,9,9-4,9-9,9Z"/>
      <path d="M333.9,27.5c4.7,0,8.5,3.8,8.5,8.5s-3.8,8.5-8.5,8.5-8.5-3.8-8.5-8.5,3.8-8.5,8.5-8.5M333.9,26.5c-5.2,0-9.5,4.2-9.5,9.5s4.2,9.5,9.5,9.5,9.5-4.2,9.5-9.5-4.2-9.5-9.5-9.5h0Z"/>
    </g>
    <g>
      <path d="M333.9,206.4c-4.9,0-9-4-9-9s4-9,9-9,9,4,9,9-4,9-9,9Z"/>
      <path d="M333.9,189c4.7,0,8.5,3.8,8.5,8.5s-3.8,8.5-8.5,8.5-8.5-3.8-8.5-8.5,3.8-8.5,8.5-8.5M333.9,188c-5.2,0-9.5,4.2-9.5,9.5s4.2,9.5,9.5,9.5,9.5-4.2,9.5-9.5-4.2-9.5-9.5-9.5h0Z"/>
    </g>
    <g>
      <path d="M656.6,206.4c-4.9,0-9-4-9-9s4-9,9-9,9,4,9,9-4,9-9,9Z"/>
      <path d="M656.6,189c4.7,0,8.5,3.8,8.5,8.5s-3.8,8.5-8.5,8.5-8.5-3.8-8.5-8.5,3.8-8.5,8.5-8.5M656.6,188c-5.2,0-9.5,4.2-9.5,9.5s4.2,9.5,9.5,9.5,9.5-4.2,9.5-9.5-4.2-9.5-9.5-9.5h0Z"/>
    </g>
    <g>
      <path d="M497.4,44.9c-4.9,0-9-4-9-9s4-9,9-9,9,4,9,9-4,9-9,9Z"/>
      <path d="M497.4,27.5c4.7,0,8.5,3.8,8.5,8.5s-3.8,8.5-8.5,8.5-8.5-3.8-8.5-8.5,3.8-8.5,8.5-8.5M497.4,26.5c-5.2,0-9.5,4.2-9.5,9.5s4.2,9.5,9.5,9.5,9.5-4.2,9.5-9.5-4.2-9.5-9.5-9.5h0Z"/>
    </g>
    <g>
      <path d="M497.4,206.4c-4.9,0-9-4-9-9s4-9,9-9,9,4,9,9-4,9-9,9Z"/>
      <path d="M497.4,189c4.7,0,8.5,3.8,8.5,8.5s-3.8,8.5-8.5,8.5-8.5-3.8-8.5-8.5,3.8-8.5,8.5-8.5M497.4,188c-5.2,0-9.5,4.2-9.5,9.5s4.2,9.5,9.5,9.5,9.5-4.2,9.5-9.5-4.2-9.5-9.5-9.5h0Z"/>
    </g>
    <g>
      <path d="M333.9,369.4c-4.9,0-9-4-9-9s4-9,9-9,9,4,9,9-4,9-9,9Z"/>
      <path d="M333.9,351.9c4.7,0,8.5,3.8,8.5,8.5s-3.8,8.5-8.5,8.5-8.5-3.8-8.5-8.5,3.8-8.5,8.5-8.5M333.9,350.9c-5.2,0-9.5,4.2-9.5,9.5s4.2,9.5,9.5,9.5,9.5-4.2,9.5-9.5-4.2-9.5-9.5-9.5h0Z"/>
    </g>
    <g>
      <path d="M333.9,285.9c-4.9,0-9-4-9-9s4-9,9-9,9,4,9,9-4,9-9,9Z"/>
      <path d="M333.9,268.5c4.7,0,8.5,3.8,8.5,8.5s-3.8,8.5-8.5,8.5-8.5-3.8-8.5-8.5,3.8-8.5,8.5-8.5M333.9,267.5c-5.2,0-9.5,4.2-9.5,9.5s4.2,9.5,9.5,9.5,9.5-4.2,9.5-9.5-4.2-9.5-9.5-9.5h0Z"/>
    </g>
    <g>
      <path d="M656.6,369.4c-4.9,0-9-4-9-9s4-9,9-9,9,4,9,9-4,9-9,9Z"/>
      <path d="M656.6,351.9c4.7,0,8.5,3.8,8.5,8.5s-3.8,8.5-8.5,8.5-8.5-3.8-8.5-8.5,3.8-8.5,8.5-8.5M656.6,350.9c-5.2,0-9.5,4.2-9.5,9.5s4.2,9.5,9.5,9.5,9.5-4.2,9.5-9.5-4.2-9.5-9.5-9.5h0Z"/>
    </g>
    <g>
      <path d="M497.4,369.4c-4.9,0-9-4-9-9s4-9,9-9,9,4,9,9-4,9-9,9Z"/>
      <path d="M497.4,351.9c4.7,0,8.5,3.8,8.5,8.5s-3.8,8.5-8.5,8.5-8.5-3.8-8.5-8.5,3.8-8.5,8.5-8.5M497.4,350.9c-5.2,0-9.5,4.2-9.5,9.5s4.2,9.5,9.5,9.5,9.5-4.2,9.5-9.5-4.2-9.5-9.5-9.5h0Z"/>
    </g>
    <g>
      <path d="M497.4,526.9c-4.9,0-9-4-9-9s4-9,9-9,9,4,9,9-4,9-9,9Z"/>
      <path d="M497.4,509.4c4.7,0,8.5,3.8,8.5,8.5s-3.8,8.5-8.5,8.5-8.5-3.8-8.5-8.5,3.8-8.5,8.5-8.5M497.4,508.4c-5.2,0-9.5,4.2-9.5,9.5s4.2,9.5,9.5,9.5,9.5-4.2,9.5-9.5-4.2-9.5-9.5-9.5h0Z"/>
    </g>
    <g>
      <path d="M416.7,449.5c-4.9,0-9-4-9-9s4-9,9-9,9,4,9,9-4,9-9,9Z"/>
      <path d="M416.7,432.1c4.7,0,8.5,3.8,8.5,8.5s-3.8,8.5-8.5,8.5-8.5-3.8-8.5-8.5,3.8-8.5,8.5-8.5M416.7,431.1c-5.2,0-9.5,4.2-9.5,9.5s4.2,9.5,9.5,9.5,9.5-4.2,9.5-9.5-4.2-9.5-9.5-9.5h0Z"/>
    </g>
    <g>
      <path d="M94.7,703.3c-4.9,0-9-4-9-9s4-9,9-9,9,4,9,9-4,9-9,9Z"/>
      <path d="M94.7,685.8c4.7,0,8.5,3.8,8.5,8.5s-3.8,8.5-8.5,8.5-8.5-3.8-8.5-8.5,3.8-8.5,8.5-8.5M94.7,684.8c-5.2,0-9.5,4.2-9.5,9.5s4.2,9.5,9.5,9.5,9.5-4.2,9.5-9.5-4.2-9.5-9.5-9.5h0Z"/>
    </g>
    <g>
      <path d="M333.9,703.3c-4.9,0-9-4-9-9s4-9,9-9,9,4,9,9-4,9-9,9Z"/>
      <path d="M333.9,685.8c4.7,0,8.5,3.8,8.5,8.5s-3.8,8.5-8.5,8.5-8.5-3.8-8.5-8.5,3.8-8.5,8.5-8.5M333.9,684.8c-5.2,0-9.5,4.2-9.5,9.5s4.2,9.5,9.5,9.5,9.5-4.2,9.5-9.5-4.2-9.5-9.5-9.5h0Z"/>
    </g>
    <g>
      <path d="M94.8,472c-4.9,0-9-4-9-9s4-9,9-9,9,4,9,9-4,9-9,9Z"/>
      <path d="M94.8,454.6c4.7,0,8.5,3.8,8.5,8.5s-3.8,8.5-8.5,8.5-8.5-3.8-8.5-8.5,3.8-8.5,8.5-8.5M94.8,453.6c-5.2,0-9.5,4.2-9.5,9.5s4.2,9.5,9.5,9.5,9.5-4.2,9.5-9.5-4.2-9.5-9.5-9.5h0Z"/>
    </g>
    <line class="st2" x1="497.4" y1="360.4" x2="416.7" y2="440.6"/>
    <line class="st2" x1="333.9" y1="694.3" x2="94.7" y2="694.3"/>
  </g>
  <g id="Layer_3">
    <line class="st1" x1="94.7" y1="36" x2="333.9" y2="276.9"/>
    <line class="st1" x1="94.8" y1="463" x2="333.9" y2="276.9"/>
    <line class="st1" x1="94.7" y1="36" x2="94.7" y2="694.3"/>
    <line class="st1" x1="497.4" y1="36" x2="94.7" y2="36"/>
    <line class="st1" x1="333.9" y1="36" x2="333.9" y2="197.5"/>
    <line class="st1" x1="497.4" y1="36" x2="333.9" y2="197.5"/>
    <line class="st1" x1="656.6" y1="197.5" x2="497.4" y2="36"/>
    <line class="st1" x1="333.9" y1="197.5" x2="656.6" y2="197.5"/>
    <line class="st1" x1="497.4" y1="360.4" x2="497.4" y2="360.4"/>
    <line class="st1" x1="497.4" y1="517.9" x2="497.4" y2="197.5"/>
    <line class="st1" x1="333.9" y1="694.3" x2="333.9" y2="197.5"/>
    <line class="st1" x1="497.4" y1="517.9" x2="333.9" y2="360.4"/>
    <line class="st1" x1="656.6" y1="360.4" x2="497.4" y2="517.9"/>
    <line class="st1" x1="656.6" y1="197.5" x2="656.6" y2="360.4"/>
    <line class="st1" x1="656.6" y1="360.4" x2="333.9" y2="360.4"/>
    <line class="st1" x1="416.7" y1="440.6" x2="497.4" y2="360.4"/>
    <line class="st1" x1="94.8" y1="463" x2="333.9" y2="694.3"/>
    <line class="st1" x1="333.9" y1="694.3" x2="94.7" y2="694.3"/>
    <line class="st1" x1="656.6" y1="360.4" x2="497.4" y2="197.5"/>
  </g>
</svg>
